<?xml version="1.0" encoding="utf-8"?>
<!-- Generator: Adobe Illustrator 28.2.0, SVG Export Plug-In . SVG Version: 6.00 Build 0)  -->
<svg version="1.1" id="Layer_1" xmlns="http://www.w3.org/2000/svg" xmlns:xlink="http://www.w3.org/1999/xlink" x="0px" y="0px"
	 viewBox="0 0 800 575" style="enable-background:new 0 0 800 575;" xml:space="preserve">
<style type="text/css">
	.st0{fill:#26A6D1;}
	.st1{fill:#FFFFFF;}
</style>
<g>
	<path class="st0" d="M50,0h700c27.6,0,50,22.4,50,50v475c0,27.6-22.4,50-50,50H50c-27.6,0-50-22.4-50-50V50C0,22.4,22.4,0,50,0z"/>
	<path class="st1" d="M129,200L50,374.8h94.6l11.7-27.9h26.8l11.7,27.9h104.1v-21.3l9.3,21.3H362l9.3-21.7v21.7h216.5l26.3-27.2
		l24.7,27.2l111.2,0.2l-79.3-87.1L750,200H640.5l-25.6,26.6L591,200H355.5l-20.2,45.1L314.6,200h-94.4v20.6L209.7,200
		C209.7,200,129,200,129,200z M147.3,224.8h46.1l52.4,118.6V224.8h50.5l40.5,85l37.3-85h50.2v125.4h-30.6l-0.2-98.3l-44.6,98.3
		h-27.4L276.7,252v98.3h-62.9l-11.9-28.1h-64.4l-11.9,28.1H91.9C91.9,350.3,147.3,224.8,147.3,224.8z M452.3,224.8h124.3l38,41.1
		l39.3-41.1h38l-57.8,63.1l57.8,62.3h-39.7l-38-41.6l-39.5,41.6H452.3L452.3,224.8L452.3,224.8z M169.7,246.1l-21.2,50.1h42.4
		L169.7,246.1z M483,250.8v22.9h67.8v25.5H483v25h76.1l35.3-36.8l-33.8-36.6L483,250.8L483,250.8z"/>
</g>
</svg>
