<svg id="Слой_1" data-name="Слой 1" xmlns="http://www.w3.org/2000/svg" viewBox="0 0 800.17 340.48"><title>apple-pay</title><path d="M151.71,249.5c9.31-12,16-27.93,14-43.89-14,.67-30.59,9.31-40.56,20.62-8.65,10-16.63,26.6-14.63,41.89,16,2,31.25-6.65,41.23-18.62m14,22.61c-22.61-1.33-41.89,12.64-52.53,12.64s-27.27-12-45.22-12c-23.28.66-44.56,13.3-56.53,34.58C-12.55,349.25,4.74,411.1,28.68,445,40,461.64,54,480.26,71.91,479.59c17.29-.66,23.94-11.3,44.55-11.3s26.6,11.3,45.22,10.64,30.59-16.63,41.9-33.92c13.3-19.28,18.62-37.9,18.62-38.57-.67-.66-36.58-14-36.58-55.19-.66-34.58,27.93-51.21,29.26-51.87-15.29-23.94-40.56-26.6-49.21-27.27" transform="translate(0.09 -205.61)"/><path d="M361.18,224.9c49.21,0,83.13,33.91,83.13,82.46,0,49.21-34.58,83.12-84.46,83.12H306v85.79H266.75V224.9ZM306,357.9h44.55c33.92,0,53.2-18.62,53.2-49.88,0-31.92-19.28-49.87-53.2-49.87H305.32V357.9Zm148.3,67.16c0-31.92,24.6-51.87,68.49-54.53l50.54-2.66v-14c0-20.62-14-32.59-36.57-32.59-22,0-35.25,10.64-38.57,26.6H462.27c2-33.25,30.59-57.85,75.81-57.85,44.55,0,73.15,23.27,73.15,60.51V476.93H575.32V447h-.67c-10.64,20.61-33.91,33.25-57.85,33.25C479.56,480.26,454.29,457.65,454.29,425.06Zm119-16.62V393.81l-45.22,2.66c-22.61,1.33-35.24,11.3-35.24,27.26s13.3,26.6,33.25,26.6c26.6,0,47.21-17.95,47.21-41.89Zm71.16,136.33v-30.6c2.66.67,9.31.67,12,.67,17.29,0,26.6-7.32,32.58-25.94,0-.66,3.33-11.3,3.33-11.3l-66.5-183.54h40.56L713,443.68h.67l46.55-149.62h39.9l-68.5,193.51c-16,44.56-33.91,58.53-71.82,58.53-2.66-.67-12-.67-15.29-1.33Z" transform="translate(0.09 -205.61)"/></svg>