<svg width="24.000488" height="23.912109" viewBox="0 0 24.0005 23.9121" fill="none" xmlns="http://www.w3.org/2000/svg" xmlns:xlink="http://www.w3.org/1999/xlink">
	<desc>
			Created with Pixso.
	</desc>
	<defs/>
	<path id="Vector" d="M12 0C5.37 0 0 5.37 0 12C0 17.62 3.87 22.34 9.1 23.64L9.1 15.66L6.62 15.66L6.62 12L9.1 12L9.1 10.41C9.1 6.33 10.94 4.44 14.95 4.44C15.72 4.44 17.03 4.59 17.56 4.74L17.56 8.06C17.28 8.03 16.79 8.01 16.18 8.01C14.21 8.01 13.45 8.76 13.45 10.7L13.45 12L17.37 12L16.7 15.66L13.45 15.66L13.45 23.91C19.39 23.19 24 18.13 24 12C24 5.37 18.62 0 12 0Z" fill="#000000" fill-opacity="1.000000" fill-rule="nonzero"/>
</svg>
