<?xml version="1.0" encoding="utf-8"?>
<!-- Generator: Adobe Illustrator 28.2.0, SVG Export Plug-In . SVG Version: 6.00 Build 0)  -->
<svg version="1.1" id="Слой_1" xmlns="http://www.w3.org/2000/svg" xmlns:xlink="http://www.w3.org/1999/xlink" x="0px" y="0px"
	 viewBox="0 0 550 550" style="enable-background:new 0 0 550 550;" xml:space="preserve">
<path d="M50,0C22.7,0,0,22.7,0,50v450c0,27.3,22.7,50,50,50h450c27.3,0,50-22.7,50-50V50c0-27.3-22.7-50-50-50H50z M50,50h450v450
	H370.3V331.2h64.8l9.4-75h-74.2v-48.4c0-21.9,5.4-36.7,36.7-36.7h40.6v-68c-6.9-0.9-31-2.3-58.6-2.3c-57.6,0-96.9,34.7-96.9,99.2
	v56.2h-65.6v75h65.6V500H50V50z"/>
</svg>
