<?xml version="1.0" encoding="utf-8"?>
<!-- Generator: Adobe Illustrator 28.2.0, SVG Export Plug-In . SVG Version: 6.00 Build 0)  -->
<svg version="1.1" id="Слой_1" xmlns="http://www.w3.org/2000/svg" xmlns:xlink="http://www.w3.org/1999/xlink" x="0px" y="0px"
	 viewBox="0 0 550 550" style="enable-background:new 0 0 550 550;" xml:space="preserve">
<path d="M161.7,0C72.9,0,0,72.9,0,161.7v226.6C0,477.1,72.9,550,161.7,550h226.6c88.8,0,161.7-72.9,161.7-161.7V161.7
	C550,72.9,477.1,0,388.3,0H161.7z M161.7,50h226.6C450.1,50,500,99.9,500,161.7v226.6c0,61.8-49.9,111.7-111.7,111.7H161.7
	C99.9,500,50,450.1,50,388.3V161.7C50,99.9,99.9,50,161.7,50z M422.7,104.7c-12.6,0-22.7,10.1-22.7,22.7s10.1,22.7,22.7,22.7
	s22.7-10.1,22.7-22.7S435.3,104.7,422.7,104.7z M275,125c-82.5,0-150,67.5-150,150s67.5,150,150,150s150-67.5,150-150
	S357.5,125,275,125z M275,175c55.6,0,100,44.4,100,100s-44.4,100-100,100s-100-44.4-100-100S219.4,175,275,175z"/>
</svg>
