<?xml version="1.0" encoding="utf-8"?>
<!-- Generator: Adobe Illustrator 28.2.0, SVG Export Plug-In . SVG Version: 6.00 Build 0)  -->
<svg version="1.1" id="Слой_1" xmlns="http://www.w3.org/2000/svg" xmlns:xlink="http://www.w3.org/1999/xlink" x="0px" y="0px"
	 viewBox="0 0 450 600" style="enable-background:new 0 0 450 600;" xml:space="preserve">
<path d="M75,0C33.9,0,0,33.9,0,75c0,32.3,21.1,59.9,50,70.3v309.4c-28.9,10.4-50,38-50,70.3c0,41.1,33.9,75,75,75s75-33.9,75-75
	c0-31.7-20.4-58.6-48.4-69.5c3.6-30.8,15.5-45.9,34.4-58.6c22.5-15.1,56.9-24.1,94.5-32.8s77.9-17.7,111.7-41.4
	c29.7-20.8,52.1-54.9,57-102.3c29.3-10.3,50.8-37.8,50.8-70.3c0-41.1-33.9-75-75-75s-75,33.9-75,75c0,31.9,20.8,58.8,49.2,69.5
	c-3.4,32.8-16.1,49.1-35.2,62.5c-22.5,15.7-57.1,25-94.5,33.6s-77.9,16.2-111.7,39.1c-2.7,1.9-5.3,4.2-7.8,6.2V145.3
	c28.9-10.4,50-38,50-70.3C150,33.9,116.1,0,75,0z M75,50c14.1,0,25,10.9,25,25s-10.9,25-25,25S50,89.1,50,75S60.9,50,75,50z
	 M375,125c14.1,0,25,10.9,25,25s-10.9,25-25,25s-25-10.9-25-25S360.9,125,375,125z M75,500c14.1,0,25,10.9,25,25s-10.9,25-25,25
	s-25-10.9-25-25S60.9,500,75,500z"/>
</svg>
