<?xml version="1.0" encoding="utf-8"?>
<!-- Generator: Adobe Illustrator 28.2.0, SVG Export Plug-In . SVG Version: 6.00 Build 0)  -->
<svg version="1.1" id="Слой_1" xmlns="http://www.w3.org/2000/svg" xmlns:xlink="http://www.w3.org/1999/xlink" x="0px" y="0px"
	 viewBox="0 0 600.2 599.8" style="enable-background:new 0 0 600.2 599.8;" xml:space="preserve">
<path d="M304.9,0C120.8-2.7-26.9,162.1,4.1,350.8c21.1,128,126.2,228.7,254.7,246.1c86.6,11.7,167.6-13.3,228.9-62.5l-31.2-39.1
	c-51.2,41-118.5,62.2-191.4,52.3C158.7,533.3,71.5,448.9,54.1,343C28,183.7,150,47.8,304.1,50c131.3,2,242.1,110.8,246.1,242.2
	c0.1,2.8,0,5.6,0,8.6c-0.2,55.1-44.8,99.2-100,99.2c-27.9,0-50-22.1-50-50V150h-50v19.5c-18-12.2-39.4-19.5-62.5-19.5
	c-61.8,0-112.5,50.7-112.5,112.5v75c0,61.8,50.7,112.5,112.5,112.5c33.7,0,63.7-15.3,84.4-39.1c18.4,23.3,46.4,39.1,78.1,39.1
	c82.1,0,149.7-67,150-149.2c0-3.3,0.1-6.5,0-10.2C595.5,132.3,463.3,2.4,304.9,0z M287.7,200c34.8,0,62.5,27.7,62.5,62.5v75
	c0,34.8-27.7,62.5-62.5,62.5s-62.5-27.7-62.5-62.5v-75C225.2,227.8,253,200,287.7,200z"/>
</svg>
