<?xml version="1.0" encoding="utf-8"?>
<!-- Generator: Adobe Illustrator 28.2.0, SVG Export Plug-In . SVG Version: 6.00 Build 0)  -->
<svg version="1.1" id="Layer_1" xmlns:sketch="http://www.bohemiancoding.com/sketch/ns"
	 xmlns="http://www.w3.org/2000/svg" xmlns:xlink="http://www.w3.org/1999/xlink" x="0px" y="0px" viewBox="0 0 640 382.9"
	 style="enable-background:new 0 0 640 382.9;" xml:space="preserve">
<style type="text/css">
	.st0{fill:#D9222A;}
	.st1{fill:#EE9F2D;}
	.st2{fill:#FFFFFF;}
</style>
<g id="Page-1" sketch:type="MSPage">
	<g id="mastercard" sketch:type="MSLayerGroup">
		<path id="Fill-1" sketch:type="MSShapeGroup" class="st0" d="M382.9,191.5c0,105.8-85.7,191.5-191.5,191.5S0,297.2,0,191.5
			C0,85.7,85.7,0,191.5,0C297.2,0,382.9,85.7,382.9,191.5"/>
		<path id="Fill-2" sketch:type="MSShapeGroup" class="st1" d="M448.5,0C399.1,0,354,18.8,320,49.6c-6.9,6.3-13.4,13.1-19.3,20.3
			h38.7c5.3,6.4,10.2,13.2,14.6,20.3h-67.9c-4.1,6.5-7.8,13.3-11,20.3H365c3.1,6.6,5.8,13.3,8.1,20.3H266.9
			c-2.2,6.6-4.1,13.4-5.6,20.3h117.3c2.8,13.1,4.3,26.6,4.3,40.5c0,21.3-3.5,41.7-9.9,60.8H266.9c2.3,6.9,5,13.7,8.1,20.3H365
			c-3.3,7-7,13.8-11,20.3h-67.9c4.4,7.1,9.3,13.8,14.6,20.3h38.7c-5.9,7.2-12.4,14-19.3,20.3c34,30.8,79.1,49.6,128.5,49.6
			c105.7,0,191.5-85.7,191.5-191.5C640,85.7,554.3,0,448.5,0"/>
		<path id="Fill-3" sketch:type="MSShapeGroup" d="M614.5,298.2c0-3.4,2.8-6.2,6.2-6.2c3.4,0,6.2,2.8,6.2,6.2c0,3.4-2.8,6.2-6.2,6.2
			C617.2,304.4,614.5,301.6,614.5,298.2L614.5,298.2L614.5,298.2z M620.7,302.9c2.6,0,4.7-2.1,4.7-4.7c0-2.6-2.1-4.7-4.7-4.7
			c-2.6,0-4.7,2.1-4.7,4.7C616,300.8,618.1,302.9,620.7,302.9L620.7,302.9L620.7,302.9z M619.8,300.9h-1.3v-5.4h2.3
			c0.5,0,1,0,1.4,0.3c0.4,0.3,0.7,0.8,0.7,1.4c0,0.6-0.4,1.2-0.9,1.4l1,2.4h-1.4l-0.8-2.2h-0.9L619.8,300.9L619.8,300.9z
			 M619.8,297.8h0.7c0.3,0,0.5,0,0.8-0.1c0.2-0.1,0.3-0.4,0.3-0.6c0-0.2-0.1-0.4-0.3-0.6c-0.2-0.1-0.6-0.1-0.8-0.1h-0.7L619.8,297.8
			L619.8,297.8z"/>
		<path id="Fill-4" sketch:type="MSShapeGroup" d="M146.8,212.4c-2.2-0.3-3.1-0.3-4.6-0.3c-11.8,0-17.7,4-17.7,12c0,4.9,2.9,8,7.5,8
			C140.3,232.2,146.4,224.1,146.8,212.4L146.8,212.4L146.8,212.4z M161.9,247.6h-17.2l0.4-8.2c-5.3,6.5-12.3,9.5-21.8,9.5
			c-11.3,0-19-8.8-19-21.6c0-19.2,13.4-30.4,36.5-30.4c2.4,0,5.4,0.2,8.5,0.6c0.6-2.6,0.8-3.7,0.8-5.1c0-5.2-3.6-7.2-13.3-7.2
			c-10.2-0.1-18.6,2.4-22,3.6c0.2-1.3,2.9-17.8,2.9-17.8c10.4-3,17.2-4.2,24.9-4.2c17.8,0,27.3,8,27.3,23.2c0,4.1-0.6,9.1-1.7,15.6
			C166.3,217.1,162.4,241.7,161.9,247.6L161.9,247.6L161.9,247.6z"/>
		<path id="Fill-5" sketch:type="MSShapeGroup" d="M95.6,247.6H74.8L86.7,173l-26.6,74.7H45.9l-1.8-74.2l-12.5,74.2H12.2l16.3-97.1
			h29.9l1.8,54.4l18.2-54.4h33.2L95.6,247.6"/>
		<path id="Fill-6" sketch:type="MSShapeGroup" d="M474.2,212.4c-2.2-0.3-3.1-0.3-4.6-0.3c-11.8,0-17.7,4-17.7,12c0,4.9,2.9,8,7.4,8
			C467.8,232.2,473.9,224.1,474.2,212.4L474.2,212.4L474.2,212.4z M489.3,247.6h-17.2l0.4-8.2c-5.3,6.5-12.3,9.5-21.8,9.5
			c-11.3,0-19-8.8-19-21.6c0-19.2,13.4-30.4,36.5-30.4c2.4,0,5.4,0.2,8.5,0.6c0.6-2.6,0.8-3.7,0.8-5.1c0-5.2-3.6-7.2-13.3-7.2
			c-10.2-0.1-18.5,2.4-22,3.6c0.2-1.3,2.9-17.8,2.9-17.8c10.4-3,17.2-4.2,24.9-4.2c17.9,0,27.3,8,27.3,23.2c0,4.1-0.6,9.1-1.7,15.6
			C493.7,217.1,489.9,241.7,489.3,247.6L489.3,247.6L489.3,247.6z"/>
		<path id="Fill-7" sketch:type="MSShapeGroup" d="M254.3,246.4c-5.7,1.8-10.1,2.6-14.9,2.6c-10.6,0-16.4-6.1-16.4-17.4
			c-0.2-3.5,1.5-12.7,2.8-21.1c1.2-7.4,9-53.9,9-53.9h20.7l-2.4,12h12.5l-2.8,19h-12.5c-2.4,15-5.8,33.7-5.9,36.2
			c0,4.1,2.2,5.8,7.1,5.8c2.4,0,4.2-0.2,5.6-0.7L254.3,246.4"/>
		<path id="Fill-8" sketch:type="MSShapeGroup" d="M317.6,245.8c-7.1,2.2-13.9,3.2-21.2,3.2c-23.1,0-35.2-12.1-35.2-35.2
			c0-27,15.3-46.9,36.2-46.9c17,0,27.9,11.1,27.9,28.6c0,5.8-0.7,11.4-2.5,19.4h-41.1c-1.4,11.5,5.9,16.2,18,16.2
			c7.4,0,14.1-1.5,21.5-5L317.6,245.8L317.6,245.8z M306,199c0.1-1.6,2.2-14.1-9.6-14.1c-6.6,0-11.3,5-13.2,14.1H306L306,199z"/>
		<path id="Fill-9" sketch:type="MSShapeGroup" d="M174.3,193.6c0,10,4.8,16.9,15.8,22.1c8.4,4,9.7,5.1,9.7,8.7
			c0,4.9-3.7,7.1-11.9,7.1c-6.2,0-12-1-18.6-3.1c0,0-2.7,17.4-2.9,18.2c4.7,1,8.9,2,21.6,2.3c21.9,0,32.1-8.4,32.1-26.4
			c0-10.9-4.2-17.2-14.7-22c-8.7-4-9.7-4.9-9.7-8.6c0-4.3,3.5-6.4,10.2-6.4c4.1,0,9.7,0.4,14.9,1.2l3-18.3
			c-5.4-0.9-13.5-1.5-18.3-1.5C182.3,166.9,174.3,179,174.3,193.6"/>
		<path id="Fill-10" sketch:type="MSShapeGroup" d="M418.7,169c5.8,0,11.2,1.5,18.6,5.2l3.4-21.1c-3-1.2-13.8-8.2-22.8-8.2
			c-13.9,0-25.7,6.9-33.9,18.3c-12.1-4-17,4.1-23.1,12.1l-5.4,1.3c0.4-2.6,0.8-5.3,0.7-7.9H337c-2.6,24.4-7.2,49.2-10.8,73.7
			l-0.9,5.3H346c3.5-22.6,5.4-37,6.5-46.8l7.8-4.4c1.2-4.3,4.8-5.8,12.2-5.6c-1,5.2-1.5,10.6-1.5,16.2c0,25.8,13.9,41.9,36.3,41.9
			c5.8,0,10.7-0.8,18.4-2.8l3.7-22.1c-6.9,3.4-12.5,5-17.7,5c-12.1,0-19.4-8.9-19.4-23.7C392.3,184,403.2,169,418.7,169"/>
		<path id="Fill-12" sketch:type="MSShapeGroup" class="st2" d="M101.6,241.9H80.8l11.9-74.7l-26.6,74.7H51.9l-1.8-74.2l-12.5,74.2
			H18.2l16.3-97.1h29.9l0.8,60.1l20.2-60.1h32.3L101.6,241.9"/>
		<path id="Fill-11" sketch:type="MSShapeGroup" d="M594.7,150.5l-4.6,28.1c-5.7-7.5-11.8-12.9-19.9-12.9c-10.5,0-20,8-26.3,19.7
			c-8.7-1.8-17.7-4.9-17.7-4.9l0,0.1c0.7-6.5,1-10.5,0.9-11.9h-19.1c-2.6,24.4-7.2,49.2-10.8,73.7l-1,5.3h20.8
			c2.8-18.2,5-33.4,6.5-45.4c7.1-6.4,10.7-12,17.8-11.6c-3.2,7.7-5,16.5-5,25.6c0,19.7,10,32.8,25.1,32.8c7.6,0,13.5-2.6,19.2-8.7
			l-1,7.3h19.7l15.8-97.1L594.7,150.5L594.7,150.5z M568.7,229.4c-7.1,0-10.6-5.2-10.6-15.6c0-15.5,6.7-26.5,16.1-26.5
			c7.1,0,11,5.4,11,15.5C585.2,218.4,578.4,229.4,568.7,229.4L568.7,229.4L568.7,229.4z"/>
		<path id="Fill-13" sketch:type="MSShapeGroup" class="st2" d="M152.7,206.7c-2.2-0.3-3.1-0.3-4.6-0.3c-11.8,0-17.7,4-17.7,12
			c0,4.9,2.9,8.1,7.4,8.1C146.3,226.4,152.4,218.4,152.7,206.7L152.7,206.7L152.7,206.7z M167.9,241.9h-17.2l0.4-8.2
			c-5.2,6.5-12.3,9.5-21.8,9.5c-11.3,0-19-8.8-19-21.6c0-19.2,13.4-30.4,36.5-30.4c2.4,0,5.4,0.2,8.5,0.6c0.6-2.6,0.8-3.7,0.8-5.1
			c0-5.2-3.6-7.2-13.3-7.2c-10.2-0.1-18.6,2.4-22,3.5c0.2-1.3,2.9-17.7,2.9-17.7c10.4-3,17.2-4.2,24.9-4.2c17.9,0,27.3,8,27.3,23.2
			c0,4.1-0.6,9.1-1.7,15.7C172.3,211.4,168.4,235.9,167.9,241.9L167.9,241.9L167.9,241.9z"/>
		<path id="Fill-14" sketch:type="MSShapeGroup" class="st2" d="M446.7,147.4l-3.4,21.1c-7.4-3.7-12.8-5.2-18.6-5.2
			c-15.5,0-26.4,15-26.4,36.4c0,14.7,7.3,23.7,19.4,23.7c5.1,0,10.8-1.6,17.7-5l-3.6,22.1c-7.7,2.1-12.6,2.8-18.4,2.8
			c-22.4,0-36.3-16.1-36.3-41.9c0-34.7,19.3-59,46.8-59C432.9,142.3,443.6,146.2,446.7,147.4"/>
		<path id="Fill-15" sketch:type="MSShapeGroup" class="st2" d="M480.2,206.7c-2.2-0.3-3.1-0.3-4.6-0.3c-11.8,0-17.7,4-17.7,12
			c0,4.9,2.9,8.1,7.4,8.1C473.7,226.4,479.8,218.4,480.2,206.7L480.2,206.7L480.2,206.7z M495.3,241.9h-17.2l0.4-8.2
			c-5.3,6.5-12.3,9.5-21.8,9.5c-11.3,0-19-8.8-19-21.6c0-19.2,13.4-30.4,36.5-30.4c2.4,0,5.4,0.2,8.5,0.6c0.6-2.6,0.8-3.7,0.8-5.1
			c0-5.2-3.6-7.2-13.3-7.2c-10.2-0.1-18.6,2.4-22,3.5c0.2-1.3,2.9-17.7,2.9-17.7c10.4-3,17.2-4.2,24.9-4.2c17.9,0,27.3,8,27.3,23.2
			c0,4.1-0.6,9.1-1.7,15.7C499.7,211.4,495.8,235.9,495.3,241.9L495.3,241.9L495.3,241.9z"/>
		<path id="Fill-16" sketch:type="MSShapeGroup" class="st2" d="M260.2,240.7c-5.7,1.8-10.1,2.6-14.9,2.6
			c-10.6,0-16.4-6.1-16.4-17.4c-0.1-3.5,1.5-12.7,2.9-21.1c1.2-7.4,9-53.9,9-53.9h20.7l-2.4,12h10.6l-2.8,19h-10.6
			c-2.4,15-5.8,33.7-5.9,36.2c0,4.1,2.2,5.8,7.1,5.8c2.4,0,4.2-0.2,5.6-0.7L260.2,240.7"/>
		<path id="Fill-17" sketch:type="MSShapeGroup" class="st2" d="M323.6,240c-7.1,2.2-14,3.2-21.2,3.2c-23.1,0-35.2-12.1-35.2-35.2
			c0-27,15.3-46.9,36.2-46.9c17,0,27.9,11.1,27.9,28.6c0,5.8-0.7,11.4-2.5,19.4h-41.1c-1.4,11.5,5.9,16.2,18,16.2
			c7.4,0,14.1-1.5,21.5-5L323.6,240L323.6,240z M312,193.2c0.1-1.6,2.2-14.1-9.6-14.1c-6.6,0-11.3,5-13.2,14.1H312L312,193.2z"/>
		<path id="Fill-18" sketch:type="MSShapeGroup" class="st2" d="M180.3,187.9c0,10,4.8,16.9,15.8,22.1c8.4,4,9.7,5.1,9.7,8.7
			c0,4.9-3.7,7.1-11.9,7.1c-6.2,0-12-1-18.6-3.1c0,0-2.7,17.4-2.8,18.2c4.7,1,8.9,2,21.6,2.3c21.9,0,32.1-8.4,32.1-26.4
			c0-10.9-4.2-17.2-14.7-22c-8.7-4-9.7-4.9-9.7-8.6c0-4.3,3.5-6.5,10.2-6.5c4.1,0,9.6,0.4,14.9,1.2l3-18.3
			c-5.4-0.9-13.5-1.5-18.3-1.5C188.3,161.1,180.3,173.3,180.3,187.9"/>
		<path id="Fill-19" sketch:type="MSShapeGroup" class="st2" d="M605.3,241.9h-19.7l1-7.4c-5.7,6.1-11.5,8.7-19.2,8.7
			c-15.1,0-25.1-13-25.1-32.8c0-26.3,15.5-48.4,33.8-48.4c8.1,0,14.2,3.3,19.8,10.8l4.6-28.1h20.5L605.3,241.9L605.3,241.9z
			 M574.7,223.6c9.7,0,16.5-11,16.5-26.6c0-10-3.9-15.5-11-15.5c-9.4,0-16.1,11-16.1,26.5C564,218.4,567.6,223.6,574.7,223.6
			L574.7,223.6L574.7,223.6z"/>
		<path id="Fill-20" sketch:type="MSShapeGroup" class="st2" d="M514,162.9c-2.6,24.4-7.2,49.2-10.8,73.7l-1,5.3H523
			c7.4-48.3,9.2-57.7,20.9-56.5c1.9-9.9,5.3-18.5,7.9-22.9c-8.7-1.8-13.6,3.1-19.9,12.5c0.5-4,1.4-8,1.2-12L514,162.9"/>
		<path id="Fill-21" sketch:type="MSShapeGroup" class="st2" d="M342.9,162.9c-2.6,24.4-7.2,49.2-10.8,73.7l-0.9,5.3h20.8
			c7.4-48.3,9.2-57.7,20.9-56.5c1.9-9.9,5.3-18.5,7.9-22.9c-8.7-1.8-13.6,3.1-19.9,12.5c0.5-4,1.4-8,1.2-12L342.9,162.9"/>
		<path id="Fill-22" sketch:type="MSShapeGroup" class="st2" d="M614.5,235.7c0-3.4,2.8-6.2,6.2-6.2c3.4,0,6.2,2.8,6.2,6.2
			c0,3.4-2.8,6.2-6.2,6.2C617.2,241.9,614.5,239.1,614.5,235.7L614.5,235.7L614.5,235.7z M620.7,240.4c2.6,0,4.7-2.1,4.7-4.7
			c0-2.6-2.1-4.7-4.7-4.7c-2.6,0-4.7,2.1-4.7,4.7C616,238.3,618.1,240.4,620.7,240.4L620.7,240.4L620.7,240.4z M619.8,238.4h-1.3
			V233h2.3c0.5,0,1,0,1.4,0.3c0.4,0.3,0.7,0.8,0.7,1.4c0,0.6-0.4,1.2-0.9,1.4l1,2.4h-1.4l-0.8-2.1h-0.9L619.8,238.4L619.8,238.4z
			 M619.8,235.3h0.7c0.3,0,0.5,0,0.8-0.1c0.2-0.1,0.3-0.4,0.3-0.6c0-0.2-0.1-0.4-0.3-0.6c-0.2-0.1-0.6-0.1-0.8-0.1h-0.7L619.8,235.3
			L619.8,235.3z"/>
	</g>
</g>
</svg>
