<?xml version="1.0" encoding="utf-8"?>
<!-- Generator: Adobe Illustrator 28.2.0, SVG Export Plug-In . SVG Version: 6.00 Build 0)  -->
<svg version="1.1" id="Layer_1" xmlns:sketch="http://www.bohemiancoding.com/sketch/ns"
	 xmlns="http://www.w3.org/2000/svg" xmlns:xlink="http://www.w3.org/1999/xlink" x="0px" y="0px" viewBox="0 0 687.3 183.2"
	 style="enable-background:new 0 0 687.3 183.2;" xml:space="preserve">
<style type="text/css">
	.st0{fill:#003087;}
	.st1{fill:#009CDE;}
</style>
<g>
	<path class="st0" d="M116.3,8.9C107.7,3,96.5,0,82.6,0H28.9c-4.3,0-6.6,2.1-7,6.4L0.1,143.3c-0.2,1.3,0.1,2.6,1,3.7
		c0.9,1.1,2,1.7,3.4,1.7h25.5c4.5,0,6.9-2.1,7.4-6.4l6-36.9c0.2-1.8,1-3.2,2.3-4.4c1.3-1.1,3-1.8,5-2.2c2-0.3,3.9-0.5,5.7-0.5
		c1.8,0,3.9,0.1,6.4,0.3c2.5,0.2,4,0.3,4.7,0.3c19.2,0,34.3-5.4,45.3-16.3c11-10.8,16.4-25.9,16.4-45.1
		C129.3,24.4,124.9,14.8,116.3,8.9z M88.7,50c-1.1,7.8-4,13-8.7,15.4c-4.7,2.5-11.4,3.7-20.1,3.7l-11.1,0.3l5.7-35.9
		c0.4-2.5,1.9-3.7,4.4-3.7h6.4c8.9,0,15.4,1.3,19.5,3.9C88.7,36.3,90,41.7,88.7,50z"/>
	<path class="st1" d="M682.9,0h-24.8c-2.5,0-3.9,1.2-4.4,3.7l-21.8,139.6l-0.3,0.7c0,1.1,0.4,2.2,1.3,3.2c0.9,1,2,1.5,3.4,1.5h22.1
		c4.2,0,6.6-2.1,7-6.4L687.3,5V4.7C687.3,1.6,685.8,0,682.9,0z"/>
	<path class="st0" d="M382.9,54c0-1.1-0.5-2.2-1.3-3.2c-0.9-1-1.9-1.5-3-1.5h-25.8c-2.5,0-4.5,1.1-6,3.4L311.1,105l-14.8-50.3
		c-1.1-3.6-3.6-5.4-7.4-5.4h-25.2c-1.1,0-2.1,0.5-3,1.5c-0.9,1-1.3,2.1-1.3,3.2c0,0.5,2.2,7,6.5,19.8c4.4,12.8,9.1,26.5,14.1,41.3
		c5,14.8,7.7,22.6,7.9,23.5c-18.3,25.1-27.5,38.5-27.5,40.3c0,2.9,1.5,4.4,4.4,4.4h25.8c2.5,0,4.5-1.1,6-3.4l85.6-123.5
		C382.7,55.9,382.9,55.1,382.9,54z"/>
	<path class="st1" d="M623.5,49.3H598c-3.1,0-5,3.7-5.7,11.1c-5.8-8.9-16.4-13.4-31.9-13.4c-16.1,0-29.8,6-41.1,18.1
		c-11.3,12.1-16.9,26.3-16.9,42.6c0,13.2,3.9,23.7,11.6,31.5c7.7,7.8,18.1,11.7,31,11.7c6.5,0,13.1-1.3,19.8-4
		c6.7-2.7,12-6.3,15.8-10.7c0,0.2-0.2,1.2-0.7,3c-0.5,1.8-0.7,3.1-0.7,4c0,3.6,1.5,5.4,4.4,5.4h23.2c4.2,0,6.7-2.1,7.4-6.4
		l13.8-87.6c0.2-1.3-0.1-2.6-1-3.7C626,49.9,624.9,49.3,623.5,49.3z M579.7,115.4c-5.7,5.6-12.6,8.4-20.6,8.4
		c-6.5,0-11.7-1.8-15.8-5.4c-4-3.6-6-8.5-6-14.8c0-8.3,2.8-15.3,8.4-21c5.6-5.7,12.5-8.6,20.8-8.6c6.3,0,11.5,1.8,15.6,5.5
		c4.1,3.7,6.2,8.8,6.2,15.3C588.3,103,585.4,109.8,579.7,115.4z"/>
	<path class="st0" d="M242.3,49.3h-25.5c-3.1,0-5,3.7-5.7,11.1c-6-8.9-16.7-13.4-31.9-13.4c-16.1,0-29.8,6-41.1,18.1
		c-11.3,12.1-16.9,26.3-16.9,42.6c0,13.2,3.9,23.7,11.6,31.5c7.7,7.8,18.1,11.7,31,11.7c6.3,0,12.8-1.3,19.5-4
		c6.7-2.7,12.1-6.3,16.1-10.7c-0.9,2.7-1.3,5-1.3,7c0,3.6,1.5,5.4,4.4,5.4h23.2c4.2,0,6.7-2.1,7.4-6.4l13.8-87.6
		c0.2-1.3-0.1-2.6-1-3.7C244.8,49.9,243.7,49.3,242.3,49.3z M198.5,115.6c-5.7,5.5-12.7,8.2-21,8.2c-6.5,0-11.7-1.8-15.6-5.4
		c-3.9-3.6-5.9-8.5-5.9-14.8c0-8.3,2.8-15.3,8.4-21c5.6-5.7,12.5-8.6,20.8-8.6c6.3,0,11.5,1.8,15.6,5.5c4.1,3.7,6.2,8.8,6.2,15.3
		C207.1,103.2,204.3,110.1,198.5,115.6z"/>
	<path class="st1" d="M497.5,8.9C488.9,3,477.7,0,463.8,0h-53.4c-4.5,0-6.9,2.1-7.4,6.4l-21.8,136.9c-0.2,1.3,0.1,2.6,1,3.7
		c0.9,1.1,2,1.7,3.4,1.7h27.5c2.7,0,4.5-1.5,5.4-4.4l6-38.9c0.2-1.8,1-3.2,2.3-4.4c1.3-1.1,3-1.8,5-2.2c2-0.3,3.9-0.5,5.7-0.5
		c1.8,0,3.9,0.1,6.4,0.3c2.5,0.2,4,0.3,4.7,0.3c19.2,0,34.3-5.4,45.3-16.3c11-10.8,16.4-25.9,16.4-45.1
		C510.4,24.4,506.1,14.8,497.5,8.9z M463.1,64.1c-4.9,3.4-12.3,5-22.1,5l-10.7,0.3l5.7-35.9c0.4-2.5,1.9-3.7,4.4-3.7h6
		c4.9,0,8.8,0.2,11.7,0.7c2.9,0.5,5.7,1.8,8.4,4.2c2.7,2.3,4,5.8,4,10.2C470.5,54.4,468,60.7,463.1,64.1z"/>
</g>
</svg>
