<?xml version="1.0" encoding="utf-8"?>
<!-- Generator: Adobe Illustrator 28.2.0, SVG Export Plug-In . SVG Version: 6.00 Build 0)  -->
<svg version="1.1" id="Слой_1" xmlns="http://www.w3.org/2000/svg" xmlns:xlink="http://www.w3.org/1999/xlink" x="0px" y="0px"
	 viewBox="0 0 649.9 583.7" style="enable-background:new 0 0 649.9 583.7;" xml:space="preserve">
<path d="M601.8,0.1c-8.4,0.4-16.3,2.8-23.3,5.6h-0.1c-7.1,2.8-41,17.1-92.5,38.7C434.4,66,367.6,94.1,301.3,122
	C168.8,177.8,38.7,232.7,38.7,232.7l1.6-0.6c0,0-9,2.9-18.4,9.4c-4.8,3.1-10.1,7.4-14.6,14.2c-4.6,6.7-8.3,17.1-6.9,27.7
	c2.2,18.1,14,28.9,22.4,34.9c8.5,6.1,16.6,8.9,16.6,8.9h0.2l122.1,41.1c5.5,17.6,37.2,121.9,44.8,145.9c4.5,14.4,8.9,23.3,14.4,30.2
	c2.6,3.5,5.8,6.4,9.5,8.8c1.5,0.9,3,1.6,4.6,2.1c0.5,0.3,1,0.4,1.6,0.5l-1.3-0.3c0.4,0.1,0.7,0.4,1,0.5c1,0.3,1.7,0.4,2.9,0.6
	c19.3,5.9,34.9-6.2,34.9-6.2l0.9-0.7l72.1-65.6l120.8,92.7l2.7,1.2c25.2,11,50.7,4.9,64.2-6C548,561,553.3,547,553.3,547l0.9-2.2
	l93.4-478.2c2.6-11.8,3.3-22.9,0.4-33.6c-2.9-10.7-10.4-20.8-19.5-26.2C619.2,1.3,610.2-0.3,601.8,0.1z M599.2,51.3
	c-0.1,1.6,0.2,1.4-0.5,4.4V56l-92.5,473.2c-0.4,0.7-1.1,2.1-2.9,3.6c-2,1.6-3.5,2.5-11.6-0.7L343.9,418.9l-89.3,81.3l18.7-119.7
	c0,0,231.4-215.7,241.4-225c10-9.3,6.6-11.2,6.6-11.2c0.7-11.3-15-3.3-15-3.3L202,329.5l-0.1-0.5L56,279.9v-0.1
	c-0.1,0-0.3-0.1-0.4-0.1c0.1,0,0.8-0.3,0.8-0.3l0.8-0.4l0.8-0.3c0,0,130.3-54.9,262.7-110.6c66.3-27.9,133.1-56.1,184.5-77.7
	c51.4-21.6,89.4-37.4,91.5-38.3C598.7,51.3,597.7,51.3,599.2,51.3z"/>
</svg>
