<?xml version="1.0" encoding="utf-8"?>
<!-- Generator: Adobe Illustrator 28.2.0, SVG Export Plug-In . SVG Version: 6.00 Build 0)  -->
<svg version="1.1"
	 id="Layer_1" xmlns:inkscape="http://www.inkscape.org/namespaces/inkscape" xmlns:sodipodi="http://sodipodi.sourceforge.net/DTD/sodipodi-0.dtd" xmlns:dc="http://purl.org/dc/elements/1.1/" xmlns:cc="http://creativecommons.org/ns#" xmlns:rdf="http://www.w3.org/1999/02/22-rdf-syntax-ns#" xmlns:sketch="http://www.bohemiancoding.com/sketch/ns" xmlns:svg="http://www.w3.org/2000/svg" sodipodi:docname="visa.svg"
	 xmlns="http://www.w3.org/2000/svg" xmlns:xlink="http://www.w3.org/1999/xlink" x="0px" y="0px" viewBox="0 0 703.6 215.5"
	 style="enable-background:new 0 0 703.6 215.5;" xml:space="preserve">
<style type="text/css">
	.st0{fill:#0E4595;}
</style>
<sodipodi:namedview  bordercolor="#666666" borderopacity="1" gridtolerance="10" guidetolerance="10" id="namedview4878" inkscape:current-layer="Layer_1" inkscape:cx="83.333333" inkscape:cy="235.5" inkscape:pageopacity="0" inkscape:pageshadow="2" inkscape:window-height="869" inkscape:window-maximized="0" inkscape:window-width="1428" inkscape:window-x="164" inkscape:window-y="478" inkscape:zoom="0.384" objecttolerance="10" pagecolor="#ffffff" showgrid="false">
	</sodipodi:namedview>
<g id="visa" sketch:type="MSLayerGroup">
	<path id="Shape" sketch:type="MSShapeGroup" class="st0" d="M248.5,213.1L284.1,4.3H341l-35.6,208.8H248.5L248.5,213.1z"/>
	<path id="path13" sketch:type="MSShapeGroup" class="st0" d="M511.1,8.8C499.8,4.5,482.1,0,460,0c-56.2,0-95.9,28.3-96.2,68.9
		c-0.3,30,28.3,46.7,49.9,56.7c22.2,10.2,29.6,16.8,29.5,25.9c-0.1,14-17.7,20.4-34.1,20.4c-22.8,0-34.9-3.2-53.6-11l-7.3-3.3
		l-8,46.7c13.3,5.8,37.9,10.9,63.4,11.1c59.8,0,98.7-28,99.1-71.3c0.2-23.8-15-41.8-47.8-56.7c-19.9-9.7-32.1-16.1-31.9-25.9
		c0-8.7,10.3-18,32.6-18c18.6-0.3,32.1,3.8,42.6,8l5.1,2.4L511.1,8.8"/>
	<path id="Path" sketch:type="MSShapeGroup" class="st0" d="M657.5,4.3h-44c-13.6,0-23.8,3.7-29.8,17.3l-84.5,191.4H559
		c0,0,9.8-25.7,12-31.4c6.5,0,64.6,0.1,72.9,0.1c1.7,7.3,6.9,31.3,6.9,31.3h52.8L657.5,4.3L657.5,4.3z M587.7,139.1
		c4.7-12,22.7-58.4,22.7-58.4c-0.3,0.6,4.7-12.1,7.5-19.9l3.8,18c0,0,10.9,49.8,13.2,60.3L587.7,139.1L587.7,139.1L587.7,139.1z"/>
	<path id="path16" class="st0" d="M0.7,4.3L0,8.6c22.5,5.4,42.6,13.3,60.2,23.1l50.5,181l60.2-0.1L260.5,4.3h-60.3l-55.7,142.4
		l-5.9-28.9c-0.3-0.9-0.6-1.8-0.9-2.7l-19.4-93.1C114.9,8.7,104.9,4.7,92.5,4.3H0.7z"/>
</g>
</svg>
